<?xml version="1.0" encoding="UTF-8" standalone="no"?>
<!DOCTYPE svg PUBLIC "-//W3C//DTD SVG 1.1//EN" "http://www.w3.org/Graphics/SVG/1.1/DTD/svg11.dtd">
<svg width="100%" height="100%" viewBox="0 0 100 100" version="1.1" xmlns="http://www.w3.org/2000/svg" xmlns:xlink="http://www.w3.org/1999/xlink" xml:space="preserve" xmlns:serif="http://www.serif.com/" style="fill-rule:evenodd;clip-rule:evenodd;stroke-linejoin:round;stroke-miterlimit:2;">
    <path d="M0-6.09c-1.679 0-3.045 1.365-3.045 3.045C-3.045-1.366-1.679 0 0 0c1.679 0 3.045-1.366 3.045-3.045C3.045-4.725 1.679-6.09 0-6.09" style="fill:#c25f28;fill-rule:nonzero" transform="translate(50 100) scale(16.4204)"/>
    <g style="clip-rule:evenodd;fill-rule:evenodd;stroke-linejoin:round;stroke-miterlimit:2">
        <path d="M0-5.265c1.226 0 2.219.994 2.219 2.22 0 1.226-.993 2.22-2.219 2.22s-2.219-.994-2.219-2.22c0-1.226.993-2.22 2.219-2.22" style="fill:#fff;fill-rule:nonzero" transform="translate(50 100) scale(16.4204)"/>
    </g>
    <path d="M0-1.626h-.573V.403h-.438v-2.029h-.577v-.403H0v.403z" style="fill:#231f20;fill-rule:nonzero" transform="translate(63.6782 63.6452) scale(16.4204)"/>
</svg>
